<svg width="322" height="267" viewBox="0 0 322 267" fill="none" xmlns="http://www.w3.org/2000/svg">
<path d="M88.9173 0L103.048 14.1366L84.0687 33.1163C77.6169 39.5736 69.0745 42.8415 60.6161 42.8303C52.1632 42.8415 43.6151 39.5736 37.1633 33.1163L18.1836 14.1366L32.3148 0L51.2943 18.9796C53.8952 21.5693 57.208 22.8305 60.6105 22.8417C64.0129 22.8305 67.3256 21.5749 69.9264 18.9796L88.9061 0H88.9173ZM121.238 88.9117L102.258 69.9321C99.6684 67.3312 98.4127 64.0184 98.4015 60.616C98.4127 57.208 99.6684 53.8952 102.258 51.3L121.238 32.3203L107.107 18.1837L88.1269 37.1633C81.6696 43.6151 78.4018 52.1632 78.413 60.616C78.4018 69.0688 81.6696 77.617 88.1269 84.0631L107.107 103.043L121.243 88.9117H121.238ZM32.3204 121.232L51.2999 102.252C53.9008 99.6571 57.208 98.4015 60.6161 98.3903C64.0185 98.4015 67.3312 99.6571 69.932 102.252L88.9117 121.232L103.048 107.095L84.0687 88.1157C77.6169 81.6584 69.0745 78.3905 60.6161 78.4017C52.1632 78.3905 43.6151 81.6584 37.1633 88.1157L18.1836 107.095L32.3204 121.232ZM0 32.3203L18.9797 51.3C21.5694 53.9008 22.8249 57.2136 22.8361 60.616C22.8249 64.0184 21.5694 67.3312 18.9797 69.9321L0 88.9117L14.1366 103.048L33.1163 84.0687C39.5736 77.617 42.8416 69.0744 42.8304 60.6216C42.8416 52.1688 39.5736 43.6206 33.1163 37.1689L14.1366 18.1893L0 32.3259V32.3203Z" fill="#00B4FD"/>
<path d="M288.826 0L302.957 14.1366L283.977 33.1163C277.525 39.5736 268.983 42.8415 260.524 42.8303C252.072 42.8415 243.523 39.5736 237.072 33.1163L218.092 14.1366L232.223 0L251.203 18.9796C253.804 21.5693 257.116 22.8305 260.519 22.8417C263.921 22.8305 267.234 21.5749 269.835 18.9796L288.815 0H288.826ZM321.146 88.9117L302.166 69.9321C299.577 67.3312 298.321 64.0184 298.31 60.616C298.321 57.208 299.577 53.8952 302.166 51.3L321.146 32.3203L307.015 18.1837L288.035 37.1633C281.578 43.6151 278.31 52.1632 278.321 60.616C278.31 69.0688 281.578 77.617 288.035 84.0631L307.015 103.043L321.152 88.9117H321.146ZM232.229 121.232L251.208 102.252C253.809 99.6571 257.116 98.4015 260.524 98.3903C263.927 98.4015 267.24 99.6571 269.84 102.252L288.82 121.232L302.957 107.095L283.977 88.1157C277.525 81.6584 268.983 78.3905 260.524 78.4017C252.072 78.3905 243.523 81.6584 237.072 88.1157L218.092 107.095L232.229 121.232ZM199.908 32.3203L218.888 51.3C221.478 53.9008 222.733 57.2136 222.744 60.616C222.733 64.0184 221.478 67.3312 218.888 69.9321L199.908 88.9117L214.045 103.048L233.025 84.0687C239.482 77.617 242.75 69.0744 242.739 60.6216C242.75 52.1688 239.482 43.6206 233.025 37.1689L214.045 18.1893L199.908 32.3259V32.3203Z" fill="#00B4FD"/>
<path d="M88.9173 145.232L103.048 159.369L84.0687 178.348C77.6169 184.806 69.0745 188.073 60.6161 188.062C52.1632 188.073 43.6151 184.806 37.1633 178.348L18.1836 159.369L32.3148 145.232L51.2943 164.212C53.8952 166.801 57.208 168.062 60.6105 168.074C64.0129 168.062 67.3256 166.807 69.9264 164.212L88.9061 145.232H88.9173ZM121.238 234.144L102.258 215.164C99.6684 212.563 98.4127 209.25 98.4015 205.848C98.4127 202.44 99.6684 199.127 102.258 196.532L121.238 177.552L107.107 163.416L88.1269 182.395C81.6696 188.847 78.4018 197.395 78.413 205.848C78.4018 214.301 81.6696 222.849 88.1269 229.295L107.107 248.275L121.243 234.144H121.238ZM32.3204 266.464L51.2999 247.484C53.9008 244.889 57.208 243.633 60.6161 243.622C64.0185 243.633 67.3312 244.889 69.932 247.484L88.9117 266.464L103.048 252.327L84.0687 233.348C77.6169 226.89 69.0745 223.622 60.6161 223.634C52.1632 223.622 43.6151 226.89 37.1633 233.348L18.1836 252.327L32.3204 266.464ZM0 177.552L18.9797 196.532C21.5694 199.133 22.8249 202.445 22.8361 205.848C22.8249 209.25 21.5694 212.563 18.9797 215.164L0 234.144L14.1366 248.28L33.1163 229.301C39.5736 222.849 42.8416 214.306 42.8304 205.854C42.8416 197.401 39.5736 188.853 33.1163 182.401L14.1366 163.421L0 177.558V177.552Z" fill="#00B4FD"/>
<path d="M288.826 145.232L302.957 159.369L283.977 178.348C277.525 184.806 268.983 188.073 260.524 188.062C252.072 188.073 243.523 184.806 237.072 178.348L218.092 159.369L232.223 145.232L251.203 164.212C253.804 166.801 257.116 168.062 260.519 168.074C263.921 168.062 267.234 166.807 269.835 164.212L288.815 145.232H288.826ZM321.146 234.144L302.166 215.164C299.577 212.563 298.321 209.25 298.31 205.848C298.321 202.44 299.577 199.127 302.166 196.532L321.146 177.552L307.015 163.416L288.035 182.395C281.578 188.847 278.31 197.395 278.321 205.848C278.31 214.301 281.578 222.849 288.035 229.295L307.015 248.275L321.152 234.144H321.146ZM232.229 266.464L251.208 247.484C253.809 244.889 257.116 243.633 260.524 243.622C263.927 243.633 267.24 244.889 269.84 247.484L288.82 266.464L302.957 252.327L283.977 233.348C277.525 226.89 268.983 223.622 260.524 223.634C252.072 223.622 243.523 226.89 237.072 233.348L218.092 252.327L232.229 266.464ZM199.908 177.552L218.888 196.532C221.478 199.133 222.733 202.445 222.745 205.848C222.733 209.25 221.478 212.563 218.888 215.164L199.908 234.144L214.045 248.28L233.025 229.301C239.482 222.849 242.75 214.306 242.739 205.854C242.75 197.401 239.482 188.853 233.025 182.401L214.045 163.421L199.908 177.558V177.552Z" fill="#00B4FD"/>
</svg>
